<?xml version="1.0"?>
<svg xmlns="http://www.w3.org/2000/svg" id="Layer_1" enable-background="new 0 0 510.84 510.84" height="512px" viewBox="0 0 510.84 510.84" width="512px"><g><g><path d="m490.251 147.093c-7.91-5.554-18.825-3.641-24.378 4.269l-96.615 137.638h-128.92c-7.745 0-11.742 4.751-14.236 6.226v7.614c0 18.778-15.223 34-34 34-4.894 0-9.542-1.042-13.747-2.904v39.486l67.692-49.422h50.652v62.71c-26.404 3.089-46.275 15.92-46.275 22.478 0 7.489 25.912 13.559 57.876 13.559s57.875-6.071 57.875-13.559c0-6.577-19.991-19.463-46.513-22.503v-62.685h58.692c5.702 0 11.047-2.778 14.323-7.446l101.843-145.083c5.552-7.911 3.641-18.825-4.269-24.378z" data-original="#000000" class="active-path" data-old_color="#000000" fill="#FFFFFF"/><path d="m94.504 24.096c-7.634 3.781-13.898 9.9-17.862 17.425h23.672c-3.391-5.028-5.488-10.997-5.81-17.425z" data-original="#000000" class="active-path" data-old_color="#000000" fill="#FFFFFF"/><path d="m211.598 302.84v-143.328c-.127-25.313-21.146-45.907-46.856-45.907-21.865 0-82.236 0-104.666 0-25.752 0-46.806 20.594-46.933 46.004v143.231c0 10.768 8.729 19.496 19.496 19.496s19.496-8.729 19.496-19.496v-143.133c.019-3.72 3.803-7.109 7.94-7.109h.473s.018 323.818.018 334.847c0 12.921 10.475 23.396 23.396 23.396 12.968 0 23.396-10.542 23.396-23.396 0-10.878 0-175.864 0-187.002h10.102v187.002c0 12.921 10.475 23.396 23.396 23.396s23.396-10.475 23.396-23.396c0-.151-.193-334.737-.193-334.847h.684c4.098 0 7.846 3.389 7.864 7.012v143.23c0 10.768 8.729 19.496 19.496 19.496s19.495-8.728 19.495-19.496z" data-original="#000000" class="active-path" data-old_color="#000000" fill="#FFFFFF"/><path d="m128.818 44.716c12.348 0 22.358-10.01 22.358-22.358s-10.01-22.358-22.358-22.358-22.358 10.01-22.358 22.358 10.01 22.358 22.358 22.358zm0-26.8c2.453 0 4.442 1.989 4.442 4.442s-1.989 4.442-4.442 4.442-4.442-1.989-4.442-4.442 1.988-4.442 4.442-4.442z" data-original="#000000" class="active-path" data-old_color="#000000" fill="#FFFFFF"/><path d="m72.542 67.445c3.334 18.893 19.819 33.249 39.668 33.249 3.896 0 7.659-.56 11.222-1.592h.315c18.029-5.263 30.739-22.694 28.885-42.581-5.21 0-79.262 0-80.446 0-.117 1.251-.183 2.517-.183 3.799 0 2.432.221 4.812.633 7.126h-.094z" data-original="#000000" class="active-path" data-old_color="#000000" fill="#FFFFFF"/></g></g> </svg>
