<?xml version="1.0"?>
<svg xmlns="http://www.w3.org/2000/svg" id="Layer_1" enable-background="new 0 0 511.899 511.899" height="512px" viewBox="0 0 511.899 511.899" width="512px"><g><g><path d="m119.806 99.34c24.701-15.238 32.373-47.616 17.135-72.317-15.238-24.702-47.616-32.373-72.317-17.135-24.702 15.238-32.373 47.616-17.135 72.317 15.238 24.702 47.616 32.373 72.317 17.135z" data-original="#000000" class="active-path" data-old_color="#000000" fill="#FFFFFF"/><path d="m500.499 329.718-101.085-70.699c-4.486-3.138-9.829-4.82-15.304-4.82h-85.589l-4.071-5.79-86.198.38c-2.506-.446-15.899 2.695-24.955-9.338l-39.068-52.61 48.144 42.272c4.346 3.816 9.931 5.919 15.712 5.919h.105l99.208-.438c13.152-.059 23.767-10.767 23.709-23.919s-10.786-23.75-23.919-23.709l-90.177.397-41.357-36.313 40.424 22.561 25.692-.113-45.145-64.198c-9.613-13.468-28.324-16.594-41.792-6.981l-53.905 32.57c-13.468 9.613-16.594 28.324-6.981 41.792l88.77 123.639.662-.248c4.806 4.657 11.354 7.529 18.575 7.529h173.744l94.193 65.878c12.06 8.434 28.715 5.533 37.185-6.577 8.452-12.085 5.508-28.733-6.577-37.184z" data-original="#000000" class="active-path" data-old_color="#000000" fill="#FFFFFF"/><path d="m494.362 409.528-115.323-84.199c-3.752-2.739-8.278-4.216-12.923-4.216h-186.661l-139.599-198.87c-6.954-9.907-20.623-12.301-30.53-5.347s-12.3 20.623-5.346 30.53l146.144 208.195c4.103 5.845 10.796 9.325 17.938 9.325h85.044v93.064c-38.465 4.188-67.568 22.87-67.568 32.376 0 10.746 37.183 19.458 83.051 19.458s83.051-8.712 83.051-19.458c0-9.478-28.93-28.08-67.226-32.341v-93.1h74.551l109.549 79.982c9.773 7.137 23.485 5 30.624-4.777 7.138-9.774 5-23.485-4.776-30.622z" data-original="#000000" class="active-path" data-old_color="#000000" fill="#FFFFFF"/></g></g> </svg>
